<svg width="45" height="50" viewBox="0 0 45 50" fill="none" xmlns="http://www.w3.org/2000/svg">
<rect x="1" y="1" width="42.8113" height="48" rx="3" fill="white" stroke="#013C72" stroke-width="2"/>
<line y1="11.8325" x2="44.8115" y2="11.8325" stroke="#013C72" stroke-width="2"/>
<circle cx="8.2545" cy="6.34678" r="2.59434" fill="#013C72"/>
<circle cx="15.0152" cy="6.34676" r="2.12264" fill="#013C72"/>
<mask id="path-5-inside-1_125_1896" fill="white">
<rect x="28.7734" y="3.75244" width="11.3208" height="5.18868" rx="1"/>
</mask>
<rect x="28.7734" y="3.75244" width="11.3208" height="5.18868" rx="1" fill="white" stroke="#013C72" stroke-width="4" mask="url(#path-5-inside-1_125_1896)"/>
<path d="M38.8362 29.6171C38.8362 38.5179 31.6207 45.7334 22.7199 45.7334C13.8191 45.7334 6.60352 38.5179 6.60352 29.6171C6.60352 20.7163 13.8191 13.5007 22.7199 13.5007C31.6207 13.5007 38.8362 20.7163 38.8362 29.6171ZM9.31161 29.6171C9.31161 37.0223 15.3147 43.0253 22.7199 43.0253C30.125 43.0253 36.1281 37.0223 36.1281 29.6171C36.1281 22.2119 30.125 16.2088 22.7199 16.2088C15.3147 16.2088 9.31161 22.2119 9.31161 29.6171Z" fill="#013C72"/>
<circle cx="22.6416" cy="29.5385" r="11.7925" fill="#013C72"/>
<path d="M13.0503 32.4474L12.5947 30.3973C12.8011 30.3198 14.9428 29.5291 16.3522 29.5413C18.0813 29.5563 20.5975 30.7992 20.5975 30.7992C20.5975 30.7992 22.0935 31.4639 23.1132 31.5067C24.4826 31.5643 26.4937 30.5633 26.4937 30.5633C26.4937 30.5633 28.398 29.4772 29.717 29.5413C30.8619 29.597 32.4685 30.5633 32.4685 30.5633L31.9969 32.2929C31.9969 32.2929 30.6403 31.6417 29.717 31.6639C28.668 31.6893 27.044 32.4474 27.044 32.4474C27.044 32.4474 24.7514 33.5773 23.1132 33.5507C21.7946 33.5294 19.8899 32.6073 19.8899 32.6073C19.8899 32.6073 17.7793 31.6433 16.3522 31.6639C14.9831 31.6838 13.0503 32.4474 13.0503 32.4474Z" fill="white"/>
<path d="M12.5786 30.3247L13.0503 32.4474C13.0503 32.4474 14.9831 31.6838 16.3522 31.6639C17.7793 31.6433 19.8899 32.6073 19.8899 32.6073C19.8899 32.6073 21.7946 33.5294 23.1132 33.5507C24.7514 33.5773 27.044 32.4474 27.044 32.4474C27.044 32.4474 28.668 31.6893 29.717 31.6639C30.6403 31.6417 31.9969 32.2929 31.9969 32.2929L32.4686 30.5633C32.4686 30.5633 30.8619 29.597 29.717 29.5413C28.398 29.4772 26.4937 30.5633 26.4937 30.5633C26.4937 30.5633 24.4826 31.5643 23.1132 31.5067C22.0935 31.4639 20.5975 30.7992 20.5975 30.7992C20.5975 30.7992 18.0813 29.5563 16.3522 29.5413C14.8703 29.5284 12.5786 30.4034 12.5786 30.4034" stroke="white"/>
<path d="M15.4378 37.3645L15.1064 35.8382C15.2565 35.7805 16.8142 35.1918 17.8392 35.2009C19.0967 35.2121 20.9266 36.1374 20.9266 36.1374C20.9266 36.1374 22.0147 36.6322 22.7562 36.6641C23.7522 36.707 25.2148 35.9618 25.2148 35.9618C25.2148 35.9618 26.5997 35.1531 27.559 35.2009C28.3917 35.2423 29.5601 35.9618 29.5601 35.9618L29.2171 37.2494C29.2171 37.2494 28.2305 36.7646 27.559 36.7812C26.7961 36.8 25.615 37.3645 25.615 37.3645C25.615 37.3645 23.9477 38.2057 22.7562 38.1859C21.7973 38.17 20.4121 37.4836 20.4121 37.4836C20.4121 37.4836 18.877 36.7658 17.8392 36.7812C16.8434 36.796 15.4378 37.3645 15.4378 37.3645Z" fill="white"/>
<path d="M15.0947 35.7842L15.4378 37.3645C15.4378 37.3645 16.8434 36.796 17.8392 36.7812C18.877 36.7658 20.4121 37.4836 20.4121 37.4836C20.4121 37.4836 21.7973 38.17 22.7562 38.1859C23.9477 38.2057 25.615 37.3645 25.615 37.3645C25.615 37.3645 26.7961 36.8 27.559 36.7812C28.2305 36.7646 29.2171 37.2494 29.2171 37.2494L29.5601 35.9618C29.5601 35.9618 28.3917 35.2423 27.559 35.2009C26.5997 35.1531 25.2148 35.9618 25.2148 35.9618C25.2148 35.9618 23.7522 36.707 22.7562 36.6641C22.0147 36.6322 20.9266 36.1374 20.9266 36.1374C20.9266 36.1374 19.0967 35.2121 17.8392 35.2009C16.7614 35.1913 15.0947 35.8427 15.0947 35.8427" stroke="white"/>
<circle cx="20.3619" cy="22.6989" r="1.80818" fill="white"/>
<circle cx="23.3492" cy="28.3593" r="1.17925" fill="white"/>
<circle cx="27.3585" cy="26.0794" r="1.88679" fill="white"/>
</svg>
